# xmcd
# 
# Track frame offsets:
#     150
#     13227
#     28229
#     43232
#     58432
#     76484
#     91357
#     106844
#     123597
#     137393
#     152850
#     167432
# 
# Disc length: 2425
# 
# Revision: 5
# Processed by: cddbd v1.5.2PL0 Copyright (c) Steve Scherf et al.
# Submitted via: fre:ac v1.0.31
# 
DISCID=a009770c
DTITLE=Kelsea Ballerini - The First Time
DYEAR=2015
DGENRE=Country
TTITLE0=XO
TTITLE1=Peter Pan
TTITLE2=Love Me Like You Mean It
TTITLE3=Square Pegs
TTITLE4=The First Time
TTITLE5=Looking At Stars
TTITLE6=Sirens
TTITLE7=Secondhand Smoke
TTITLE8=Dibs
TTITLE9=Stilettos
TTITLE10=Yeah Boy
TTITLE11=Underage
EXTD=YEAR: 2015
EXTT0=
EXTT1=
EXTT2=
EXTT3=
EXTT4=
EXTT5=
EXTT6=
EXTT7=
EXTT8=
EXTT9=
EXTT10=
EXTT11=
PLAYORDER=
